<?xml version="1.0" standalone="no"?>
<!DOCTYPE svg PUBLIC "-//W3C//DTD SVG 20010904//EN"
 "http://www.w3.org/TR/2001/REC-SVG-20010904/DTD/svg10.dtd">
<svg version="1.0" xmlns="http://www.w3.org/2000/svg"
 width="2245.000000pt" height="2245.000000pt" viewBox="0 0 2245.000000 2245.000000"
 preserveAspectRatio="xMidYMid meet">
<metadata>
Created by potrace 1.11, written by Peter Selinger 2001-2013
</metadata>
<g transform="translate(0.000000,2245.000000) scale(0.100000,-0.100000)"
fill="#000000" stroke="none">
<path d="M5928 17445 c-2 -1 -61 -6 -133 -9 -71 -4 -139 -9 -150 -11 -11 -2
-51 -7 -90 -10 -38 -4 -86 -9 -105 -11 -72 -9 -187 -25 -211 -29 -13 -3 -87
-16 -164 -30 -175 -31 -152 -26 -330 -69 -991 -239 -1904 -720 -2685 -1414
-98 -88 -387 -376 -472 -472 -53 -59 -253 -300 -296 -355 -21 -27 -99 -132
-112 -151 -8 -12 -45 -64 -81 -116 -243 -344 -506 -833 -658 -1228 -19 -47
-37 -92 -42 -101 -7 -14 -121 -344 -129 -374 -1 -5 -4 -14 -6 -20 -6 -17 -86
-315 -88 -328 -1 -7 -5 -21 -9 -32 -3 -11 -8 -31 -11 -45 -2 -14 -18 -92 -34
-175 -30 -148 -36 -181 -47 -260 -3 -22 -8 -49 -10 -60 -2 -11 -7 -47 -11 -79
-3 -33 -8 -68 -10 -79 -2 -11 -6 -52 -10 -91 -3 -39 -7 -82 -10 -96 -25 -161
-25 -920 1 -1115 2 -16 7 -59 10 -95 18 -176 25 -225 51 -375 13 -77 26 -151
29 -165 6 -30 13 -65 20 -105 3 -16 8 -38 11 -47 3 -9 7 -26 9 -38 2 -12 22
-92 44 -178 78 -306 184 -613 317 -920 8 -17 21 -49 30 -70 24 -54 176 -358
209 -417 84 -151 105 -187 148 -253 15 -24 27 -45 27 -48 0 -3 9 -17 19 -32
10 -15 60 -88 109 -163 50 -75 107 -159 127 -185 20 -27 46 -62 58 -78 12 -16
33 -43 47 -61 14 -18 36 -47 50 -65 14 -18 30 -38 35 -44 6 -6 46 -54 90 -106
114 -136 166 -193 315 -345 130 -134 248 -244 395 -370 38 -33 75 -64 81 -70
6 -5 26 -21 44 -35 19 -14 48 -37 64 -51 17 -14 81 -62 141 -107 61 -45 115
-85 120 -89 45 -36 251 -169 395 -255 170 -103 479 -266 610 -323 36 -15 88
-38 115 -51 204 -94 580 -223 915 -314 149 -40 478 -106 629 -126 19 -2 46 -6
60 -9 49 -8 106 -15 161 -20 30 -2 75 -7 100 -10 46 -5 127 -11 260 -21 86 -6
520 -6 594 0 49 4 145 13 226 22 41 4 228 31 275 39 820 146 1764 511 2765
1068 69 38 150 83 180 100 74 41 481 282 585 347 183 113 391 248 688 447 158
106 290 193 295 192 4 0 45 -45 92 -101 96 -112 386 -409 500 -510 122 -108
130 -116 235 -202 684 -565 1540 -1001 2375 -1212 89 -22 406 -92 449 -99 14
-2 71 -11 126 -19 55 -9 116 -19 135 -21 19 -3 46 -7 60 -9 14 -3 57 -7 95
-11 39 -4 84 -8 100 -10 34 -5 178 -16 275 -21 107 -6 538 -6 640 0 168 10
329 23 370 30 14 3 52 7 85 11 33 3 67 8 75 10 8 2 42 7 75 10 32 4 62 8 65
10 3 1 26 6 52 9 26 4 114 20 195 37 81 17 159 33 173 35 240 48 805 235 1055
349 28 12 79 35 115 51 161 70 448 224 678 363 24 14 51 31 60 36 59 35 275
185 382 264 86 63 318 250 370 297 19 17 62 55 95 84 201 176 612 621 758 821
10 13 49 67 88 119 86 116 235 339 316 475 82 136 265 475 268 495 0 3 16 37
34 75 161 335 317 784 410 1175 32 137 41 181 57 265 3 17 9 48 14 70 4 22 11
60 14 85 3 25 8 56 11 69 6 31 24 162 30 221 34 326 39 424 39 735 0 234 -8
447 -19 530 -2 16 -7 62 -10 100 -4 39 -8 84 -10 100 -7 59 -17 131 -21 165
-7 49 -42 255 -49 282 -2 13 -7 34 -9 48 -14 82 -59 268 -120 495 -47 177
-188 567 -272 755 -14 30 -37 82 -52 115 -30 67 -190 384 -202 400 -4 6 -21
35 -37 65 -169 309 -502 778 -748 1050 -176 196 -335 354 -545 546 -169 153
-601 480 -751 569 -10 6 -54 33 -99 60 -122 75 -136 83 -260 153 -122 68 -385
198 -510 252 -41 18 -88 38 -105 45 -154 67 -454 173 -665 233 -114 33 -374
98 -430 107 -19 3 -51 10 -70 15 -19 5 -51 11 -70 14 -19 3 -62 11 -95 16
-100 18 -370 54 -480 64 -306 28 -836 29 -1125 1 -19 -2 -66 -6 -105 -10 -78
-7 -77 -6 -270 -35 -173 -26 -168 -25 -290 -50 -55 -12 -109 -23 -120 -26 -11
-2 -31 -6 -45 -9 -14 -3 -34 -7 -45 -9 -110 -23 -438 -119 -600 -176 -49 -17
-110 -38 -135 -47 -25 -8 -58 -21 -75 -28 -16 -8 -79 -34 -140 -58 -663 -269
-1341 -707 -1879 -1217 -154 -146 -368 -372 -488 -513 l-23 -29 -25 20 c-46
36 -573 386 -750 499 -280 177 -659 405 -845 508 -294 162 -403 220 -657 347
-163 81 -298 148 -301 148 -3 0 -49 21 -104 46 -54 25 -119 54 -144 64 -26 10
-66 28 -90 38 -429 194 -1151 419 -1559 487 -19 3 -57 10 -85 15 -27 5 -74 12
-104 15 -30 4 -63 8 -74 11 -11 2 -52 6 -91 9 -39 4 -84 8 -101 11 -31 5 -611
14 -617 9z m537 -3109 c505 -43 1008 -215 1430 -490 94 -62 265 -187 301 -220
7 -6 56 -51 110 -101 503 -459 845 -1085 959 -1755 11 -68 14 -86 21 -145 3
-33 9 -69 11 -80 9 -35 11 -521 3 -567 -5 -23 -11 -72 -14 -108 -3 -36 -8 -78
-11 -95 -3 -16 -13 -68 -21 -115 -120 -671 -509 -1337 -1044 -1786 -413 -347
-878 -571 -1395 -673 -105 -20 -139 -26 -220 -36 -27 -4 -61 -9 -75 -11 -51
-10 -488 -13 -570 -4 -47 5 -110 12 -140 15 -30 4 -64 8 -75 11 -23 5 -66 12
-115 20 -19 3 -51 9 -70 14 -19 5 -46 11 -60 14 -67 13 -312 86 -355 106 -11
5 -56 23 -99 40 -436 170 -887 498 -1201 874 -22 26 -50 59 -63 74 -42 50
-172 239 -228 333 -187 311 -345 733 -389 1036 -3 21 -8 44 -10 51 -3 7 -7 40
-11 75 -3 34 -8 65 -10 68 -7 12 -17 231 -17 364 -1 133 8 304 17 352 3 12 7
48 11 80 3 32 10 76 15 98 5 22 11 56 14 75 3 19 8 44 10 55 5 20 52 205 60
235 8 27 77 224 91 255 149 349 306 608 524 865 99 117 343 351 425 410 12 8
32 24 46 37 36 31 179 130 218 150 17 9 32 20 32 25 0 4 4 8 9 8 4 0 48 23 97
51 73 43 184 98 319 159 198 90 540 185 780 216 28 3 59 8 70 10 11 3 74 7
140 10 66 4 121 7 122 8 6 5 284 -2 358 -8z m10040 -1 c39 -3 85 -8 103 -11
147 -20 160 -22 297 -51 348 -73 720 -227 1014 -420 296 -194 517 -394 756
-684 109 -134 262 -376 354 -562 54 -111 141 -325 141 -348 0 -10 4 -20 9 -23
5 -3 11 -16 14 -28 3 -13 15 -54 26 -93 22 -73 65 -254 75 -315 62 -382 65
-725 10 -1050 -2 -14 -7 -41 -9 -60 -3 -19 -8 -46 -11 -60 -3 -14 -7 -32 -9
-40 -132 -597 -411 -1108 -840 -1535 -163 -163 -182 -180 -313 -278 -99 -76
-294 -207 -307 -207 -4 0 -19 -8 -33 -19 -49 -33 -196 -107 -327 -163 -203
-87 -446 -161 -630 -193 -82 -14 -155 -25 -205 -31 -30 -3 -66 -8 -80 -11 -14
-3 -126 -6 -250 -8 -294 -4 -518 19 -755 77 -44 11 -90 22 -103 24 -115 22
-544 193 -662 264 -65 40 -153 90 -156 90 -8 0 -200 134 -269 188 -113 88
-173 140 -293 259 l-114 112 59 47 c32 26 60 50 63 54 3 3 61 53 130 110 69
57 159 134 200 170 42 36 102 88 135 115 55 46 143 123 155 135 3 3 37 32 75
65 39 33 75 64 81 70 6 5 42 37 80 71 105 93 438 387 450 399 6 5 44 39 84 75
40 36 84 76 99 90 14 14 64 59 110 100 46 41 99 89 116 105 27 26 78 72 234
214 77 70 246 229 263 246 19 20 19 20 -46 80 -298 277 -266 247 -395 365
-123 111 -140 128 -193 175 -24 22 -87 79 -139 126 -52 47 -114 103 -139 125
-24 21 -51 46 -60 54 -9 8 -44 40 -79 70 -35 30 -78 69 -95 85 -18 17 -61 55
-96 85 -36 30 -69 60 -75 66 -10 10 -114 101 -245 214 -14 12 -50 43 -80 70
-30 26 -140 121 -245 210 -104 89 -201 172 -215 184 -14 11 -68 57 -120 100
-52 44 -99 82 -103 86 -19 16 369 370 488 446 17 10 32 21 35 25 4 5 103 69
177 115 99 61 326 172 458 224 61 23 119 46 130 51 88 36 427 116 575 134 30
4 64 9 75 11 11 2 72 7 135 10 63 4 116 8 118 9 5 4 299 -4 367 -10z"/>
</g>
</svg>
